Coordinates
version=1
nRows=9
nColumns=63
inDegrees=yes

Units are S.I. units (second, meters, Newtons, ...)
If the header above contains a line with 'inDegrees', this indicates whether rotational values are in degrees (yes) or radians (no).

endheader
time	pelvis_tilt	pelvis_list	pelvis_rotation	pelvis_tx	pelvis_ty	pelvis_tz	hip_flexion_r	hip_adduction_r	hip_rotation_r	knee_angle_r	knee_angle_r_beta	ankle_angle_r	subtalar_angle_r	mtp_angle_r	hip_flexion_l	hip_adduction_l	hip_rotation_l	knee_angle_l	knee_angle_l_beta	ankle_angle_l	subtalar_angle_l	mtp_angle_l	L5_S1_Flex_Ext	L5_S1_Lat_Bending	L5_S1_axial_rotation	L4_L5_Flex_Ext	L4_L5_Lat_Bending	L4_L5_axial_rotation	L3_L4_Flex_Ext	L3_L4_Lat_Bending	L3_L4_axial_rotation	L2_L3_Flex_Ext	L2_L3_Lat_Bending	L2_L3_axial_rotation	L1_L2_Flex_Ext	L1_L2_Lat_Bending	L1_L2_axial_rotation	L1_T12_Flex_Ext	L1_T12_Lat_Bending	L1_T12_axial_rotation	Abs_r3	Abs_r2	Abs_r1	Abs_t1	Abs_t2	neck_flexion	neck_bending	neck_rotation	arm_flex_r	arm_add_r	arm_rot_r	elbow_flex_r	pro_sup_r	wrist_flex_r	wrist_dev_r	arm_flex_l	arm_add_l	arm_rot_l	elbow_flex_l	pro_sup_l	wrist_flex_l	wrist_dev_l
      6.72881356	      5.10920004	     -2.44438461	     93.86153309	      0.12944828	      1.07682927	      0.07631901	      7.09768933	     -1.79801785	    -12.15447825	     21.17495463	      0.36957268	     23.20951060	     15.47934285	      0.00000000	      4.75493297	     -5.04554081	     -9.35965030	     15.30421502	      0.26710894	     26.35649582	     13.70498392	      0.00000000	     -0.37661204	     -1.91268773	      1.72488149	     -0.69940622	     -2.54387468	      1.83268658	     -0.61873592	     -4.65050895	      1.83268658	     -0.43042990	     -4.65050895	      1.50927130	     -0.34972194	     -3.90035282	      1.40146621	     -0.21519612	     -2.96275329	      1.29366112	     -2.69010213	    -21.63670614	      9.59327337	      0.00000000	      0.00000000	     10.93010399	     15.95394524	    -37.99040648	    120.06008308	    -49.40532919	     36.93148891	     87.89132325	     61.83109437	     13.00288752	      1.44902906	    -30.52886194	   -200.78234355	     23.87630428	      0.08102348	      2.07180825	    -69.72761540	    -24.27946827
      6.74576271	      5.04360201	     -2.56402306	     93.68108563	      0.12705172	      1.07703248	      0.07793419	      7.29176703	     -2.04484850	    -11.73490785	     21.11487081	      0.36852402	     22.99935392	     15.60016559	      0.00000000	      4.95195400	     -4.78472811	     -9.70308004	     15.24017272	      0.26599119	     26.42496246	     13.51699651	      0.00000000	     -0.34203088	     -1.91681086	      1.71159715	     -0.63518556	     -2.54935844	      1.81857198	     -0.56192254	     -4.66053392	      1.81857198	     -0.39090710	     -4.66053392	      1.49764751	     -0.31760988	     -3.90876070	      1.39067269	     -0.19543645	     -2.96914002	      1.28369787	     -2.44309241	    -21.68334780	      9.51938989	      0.00000000	      0.00000000	     11.68979505	     15.28792218	    -37.89137752	    120.03332103	    -48.83568415	     36.62766089	     88.12673208	     62.11800292	     12.95899613	      1.06434893	    -30.67804825	   -200.38933460	     23.84005862	      0.08255773	      2.02647212	    -69.71546810	    -24.26162699
      6.76271186	      4.63472102	     -2.47952832	     92.55411687	      0.12629703	      1.07764217	      0.07956559	      7.66700344	     -2.42126931	     -9.65052758	     21.62378830	      0.37740630	     23.06319377	     14.66559785	      0.00000000	      4.71681521	     -4.30518388	    -11.25233029	     15.15348713	      0.26447824	     26.46038339	     13.69663556	      0.00000000	     -0.32242768	     -1.96429473	      1.80059916	     -0.59878045	     -2.61251199	      1.91313661	     -0.52971644	     -4.77598621	      1.91313661	     -0.36850260	     -4.77598621	      1.57552427	     -0.29940635	     -4.00558982	      1.46298682	     -0.18423518	     -3.04269254	      1.35044937	     -2.30306869	    -22.22049486	     10.01439236	      0.00000000	      0.00000000	     12.59654006	     15.00211275	    -37.41741414	    119.36183116	    -47.63645982	     34.95493276	     88.48457655	     68.71929503	     11.48300327	     -1.06299933	    -30.62183890	   -199.84811161	     24.28871847	      0.08337742	      1.94745595	    -69.70969720	    -24.25129126
      6.77966102	      4.28531258	     -2.42243755	     91.97062262	      0.12468161	      1.07785363	      0.08082469	      7.83233945	     -2.90807204	     -8.85237754	     21.88913745	      0.38203752	     23.24206780	     14.73386188	      0.00000000	      4.67105364	     -3.80582825	    -11.81016991	     15.21558702	      0.26556209	     26.51877180	     13.39131807	      0.00000000	     -0.31586852	     -1.99943963	      1.84934270	     -0.58659943	     -2.65925471	      1.96492662	     -0.51894039	     -4.86143751	      1.96492662	     -0.36100613	     -4.86143751	      1.61817486	     -0.29331551	     -4.07725729	      1.50259094	     -0.18048727	     -3.09713198	      1.38700702	     -2.25621725	    -22.61806096	     10.28548929	      0.00000000	      0.00000000	     13.57199707	     14.52678968	    -37.05786928	    120.04969883	    -47.06838103	     35.21490849	     88.96111897	     69.05508008	     11.17577900	     -0.44420252	    -30.46424202	   -199.37688357	     23.88769112	      0.08381679	      1.83383627	    -69.71104582	    -24.25659005
      6.79661017	      3.86873812	     -2.23684894	     90.90184735	      0.12395407	      1.07823911	      0.08152491	      7.99796389	     -3.29793781	     -7.16583355	     22.31139997	      0.38940739	     23.35271421	     14.18779528	      0.00000000	      4.22499735	     -3.23628397	    -12.75774324	     14.95575820	      0.26102722	     26.49698822	     13.06216838	      0.00000000	     -0.32194877	     -2.04279848	      2.02772451	     -0.59789107	     -2.71692198	      2.15445729	     -0.52892964	     -4.96686022	      2.15445729	     -0.36795525	     -4.96686022	      1.77425894	     -0.29896163	     -4.16567466	      1.64752616	     -0.18396153	     -3.16429485	      1.52079338	     -2.29964790	    -23.10854497	     11.27759540	      0.00000000	      0.00000000	     14.41711339	     14.35173589	    -36.65832885	    121.22839586	    -46.91624860	     36.01889270	     89.86977157	     69.66775808	     10.27482368	      2.00115991	    -30.17074962	   -198.99310345	     22.94820200	      0.08335735	      1.71975436	    -69.72006297	    -24.26247583
      6.81355932	      3.40115126	     -2.00236188	     90.20394051	      0.12284715	      1.07866831	      0.08157435	      7.85885059	     -3.72373265	     -5.68566803	     22.39303544	      0.39083220	     23.47385782	     13.41899494	      0.00000000	      3.77012239	     -2.60826558	    -13.35040791	     14.72700463	      0.25703472	     26.35222018	     12.92047667	      0.00000000	     -0.34092982	     -2.09168774	      2.15728606	     -0.63314077	     -2.78194469	      2.29211644	     -0.56011360	     -5.08572956	      2.29211644	     -0.38964869	     -5.08572956	      1.88762530	     -0.31658743	     -4.26536963	      1.75279492	     -0.19480730	     -3.24002430	      1.61796455	     -2.43522762	    -23.66159000	     11.99817788	      0.00000000	      0.00000000	     14.72044188	     14.05757045	    -36.47511865	    122.21178931	    -46.74616598	     36.62371613	     90.74260389	     69.66271182	      9.62160208	      4.54929525	    -29.86250389	   -198.67681454	     21.63632776	      0.08253094	      1.56553255	    -69.72972642	    -24.27689615
      6.83050847	      2.94672996	     -1.86923859	     89.38899449	      0.12212731	      1.07890139	      0.08114463	      7.70335451	     -4.05083285	     -3.89518763	     22.20173106	      0.38749331	     23.54790386	     12.40533697	      0.00000000	      3.37491438	     -1.98104005	    -13.91645087	     14.46555378	      0.25247154	     26.17296790	     12.56906225	      0.00000000	     -0.33609647	     -2.14237084	      2.32578984	     -0.62416476	     -2.84935322	      2.47115170	     -0.55217290	     -5.20896046	      2.47115170	     -0.38412466	     -5.20896046	      2.03506611	     -0.31209919	     -4.36872261	      1.88970424	     -0.19204553	     -3.31853243	      1.74434238	     -2.40070351	    -24.23492740	     12.93534534	      0.00000000	      0.00000000	     14.61947334	     13.83747391	    -36.56719850	    122.94677141	    -46.70533694	     36.97773371	     91.64428770	     69.09581867	      9.01524743	      7.54461054	    -29.52607304	   -198.48102072	     20.24161616	      0.08306295	      1.45363105	    -69.74120712	    -24.29819063
      6.84745763	      2.38998907	     -1.69627270	     88.69079884	      0.12147134	      1.07908518	      0.08043617	      7.47260303	     -4.53584274	     -2.45549225	     22.03179044	      0.38452728	     23.74698761	     11.63393892	      0.00000000	      3.01493028	     -1.26217883	    -14.27973443	     14.35124289	      0.25047644	     26.01932973	     12.18350781	      0.00000000	     -0.33737358	     -2.20548341	      2.46583818	     -0.62653648	     -2.93329294	      2.61995307	     -0.55427106	     -5.36241237	      2.61995307	     -0.38558427	     -5.36241237	      2.15760841	     -0.31328511	     -4.49742177	      2.00349352	     -0.19277527	     -3.41629381	      1.84937863	     -2.40982577	    -24.94886946	     13.71425220	      0.00000000	      0.00000000	     14.20811975	     13.67153409	    -36.61293008	    123.34956807	    -46.66960488	     37.08487002	     92.23635625	     68.76904935	      8.60068784	      9.50250921	    -29.13390618	   -198.31161925	     19.33526855	      0.08222680	      1.35043239	    -69.75222378	    -24.30752302
      6.86440678	      1.81261161	     -1.52428838	     87.93169887	      0.12101070	      1.07910410	      0.07954377	      7.25322647	     -5.01620012	     -0.88914385	     21.89135805	      0.38207628	     23.99657498	     10.70199010	      0.00000000	      2.69286762	     -0.53985886	    -14.64622519	     14.32960875	      0.25009885	     25.93315737	     11.75523144	      0.00000000	     -0.33399369	     -2.26867340	      2.62569072	     -0.62025969	     -3.01733562	      2.78979639	     -0.54871824	     -5.51605251	      2.78979639	     -0.38172139	     -5.51605251	      2.29747938	     -0.31014654	     -4.62627880	      2.13337371	     -0.19084400	     -3.51417510	      1.96926804	     -2.38568354	    -25.66368724	     14.60330406	      0.00000000	      0.00000000	     13.69096984	     13.58987355	    -36.70628515	    123.59662211	    -46.69244127	     37.07991286	     92.69019553	     69.47274632	      8.04064301	     11.00413937	    -28.72817587	   -198.17818205	     18.77612483	      0.08166852	      1.26169766	    -69.76121838	    -24.31301149
